<svg width="1414" height="1169" viewBox="0 0 1414 1169" fill="none" xmlns="http://www.w3.org/2000/svg">
<path d="M86.6375 508.87C86.6375 508.87 711.637 252.37 928.397 162.05C1011.49 125.925 1293.28 10.3145 1293.28 10.3145C1293.28 10.3145 1423.34 -40.2605 1412.5 82.5695C1408.89 133.15 1379.99 310.169 1351.09 501.644C1307.73 772.599 1260.77 1068.84 1260.77 1068.84C1260.77 1068.84 1253.54 1151.93 1192.13 1166.38C1130.71 1180.83 1029.55 1115.81 1011.49 1101.35C997.037 1090.52 740.537 927.945 646.607 848.465C621.317 826.79 592.417 783.439 650.217 732.859C780.277 613.639 935.622 465.52 1029.55 371.59C1072.91 328.235 1116.26 227.079 935.622 349.909C679.122 526.934 426.232 693.12 426.232 693.12C426.232 693.12 368.427 729.244 260.047 696.729C151.662 664.219 25.2175 620.864 25.2175 620.864C25.2175 620.864 -61.4825 566.675 86.6375 508.87Z" fill="white"/>
</svg>
