<svg width="92" height="92" viewBox="0 0 92 92" fill="none" xmlns="http://www.w3.org/2000/svg">
<rect width="92" height="92" rx="46" fill="url(#paint0_linear_1_63)"/>
<path d="M68.3846 47.7215H23.612C23.1552 47.7215 22.7173 47.9031 22.3943 48.2261C22.0717 48.5487 21.8901 48.987 21.8901 49.4438V64.9422C21.8901 65.3989 22.0717 65.8369 22.3943 66.1599C22.7173 66.4829 23.1552 66.6641 23.612 66.6641H68.3846C68.8413 66.6641 69.2793 66.4829 69.6023 66.1599C69.9253 65.8369 70.1064 65.399 70.1064 64.9422V49.4438C70.1064 48.9871 69.9253 48.5487 69.6023 48.2261C69.2793 47.9031 68.8414 47.7215 68.3846 47.7215ZM66.6628 63.22H25.3344V51.1658H66.6628V63.22ZM28.7786 59.776V54.6102C28.7786 53.995 29.1067 53.4263 29.6395 53.1191C30.1723 52.8115 30.829 52.8115 31.3617 53.1191C31.8945 53.4263 32.2226 53.9949 32.2226 54.6102V59.776C32.2226 60.3912 31.8945 60.9598 31.3617 61.2675C30.829 61.5751 30.1723 61.5751 29.6395 61.2675C29.1067 60.9599 28.7786 60.3912 28.7786 59.776ZM37.3885 46.0002L54.6085 46.0006C55.0652 46.0006 55.5032 45.819 55.8262 45.496C56.1492 45.173 56.3303 44.7351 56.3303 44.2784V33.9463C56.3303 33.4895 56.1492 33.0516 55.8262 32.7286C55.5032 32.4056 55.0653 32.2244 54.6085 32.2244V30.5022C54.6085 27.4265 52.9674 24.584 50.3036 23.0459C47.6398 21.5078 44.3577 21.5079 41.6933 23.0459C39.0295 24.5839 37.3884 27.4265 37.3884 30.5022V32.2244C36.9317 32.2244 36.4937 32.4056 36.1707 32.7286C35.8477 33.0516 35.6666 33.4895 35.6666 33.9463V44.2784C35.6666 44.7351 35.8477 45.173 36.1707 45.496C36.4937 45.8191 36.9316 46.0006 37.3884 46.0006L37.3885 46.0002ZM52.8869 42.5562L39.1112 42.5566V35.6685H52.8869V42.5562ZM40.8327 30.502C40.8327 28.6563 41.8175 26.9511 43.4158 26.0283C45.0141 25.1055 46.9833 25.1055 48.5816 26.0283C50.1799 26.9512 51.1647 28.6563 51.1647 30.502V32.2242H40.8326L40.8327 30.502ZM42.5549 39.1123C42.5549 38.6556 42.7361 38.2176 43.0591 37.8946C43.3821 37.5716 43.82 37.39 44.2768 37.39H47.7208C48.336 37.39 48.9046 37.7182 49.2123 38.2509C49.5199 38.7841 49.5199 39.4404 49.2123 39.9732C48.9047 40.5059 48.336 40.8341 47.7208 40.8341H44.2768C43.82 40.8341 43.3821 40.6529 43.0591 40.3299C42.7361 40.0069 42.5549 39.569 42.5549 39.1123Z" fill="#2994FF"/>
<defs>
<linearGradient id="paint0_linear_1_63" x1="46" y1="92" x2="46" y2="1.09673e-05" gradientUnits="userSpaceOnUse">
<stop stop-color="#EBF5FF" stop-opacity="0"/>
<stop offset="0.660306" stop-color="#EAF5FF" stop-opacity="0.660306"/>
<stop offset="1" stop-color="#EAF5FF"/>
</linearGradient>
</defs>
</svg>
